<svg xmlns="http://www.w3.org/2000/svg" viewBox="0 0 1280 720" role="img" aria-labelledby="title desc">
  <title id="title">Animated presentation demo</title>
  <desc id="desc">A stylized product demo frame with animated chart bars, a line graph, and a live status marker.</desc>
  <rect width="1280" height="720" fill="#111827"/>
  <rect x="54" y="48" width="1172" height="624" rx="22" fill="#151f32" stroke="#293244" stroke-width="3"/>
  <rect x="92" y="88" width="356" height="70" rx="12" fill="#f6f4ee"/>
  <text x="122" y="132" fill="#15171a" font-family="Inter, Segoe UI, sans-serif" font-size="30" font-weight="760">Byeslide live demo</text>
  <rect x="92" y="194" width="1096" height="2" fill="#293244"/>

  <g transform="translate(102 238)">
    <text x="0" y="0" fill="#c9d2dc" font-family="Inter, Segoe UI, sans-serif" font-size="22">deck confidence</text>
    <polyline fill="none" stroke="#2f6df6" stroke-width="12" stroke-linecap="round" stroke-linejoin="round" points="0,224 160,184 320,132 480,92 640,54"/>
    <g fill="#111827" stroke="#8fb0ff" stroke-width="8">
      <circle cx="0" cy="224" r="14">
        <animate attributeName="r" values="14;22;14" dur="2.8s" repeatCount="indefinite"/>
      </circle>
      <circle cx="160" cy="184" r="14"/>
      <circle cx="320" cy="132" r="14"/>
      <circle cx="480" cy="92" r="14"/>
      <circle cx="640" cy="54" r="14">
        <animate attributeName="r" values="14;22;14" dur="2.8s" begin="1.4s" repeatCount="indefinite"/>
      </circle>
    </g>
  </g>

  <g transform="translate(820 250)">
    <text x="0" y="-34" fill="#c9d2dc" font-family="Inter, Segoe UI, sans-serif" font-size="22">workflow time</text>
    <rect x="0" y="170" width="72" height="150" rx="8" fill="#64748b">
      <animate attributeName="height" values="150;118;150" dur="3s" repeatCount="indefinite"/>
      <animate attributeName="y" values="170;202;170" dur="3s" repeatCount="indefinite"/>
    </rect>
    <rect x="98" y="126" width="72" height="194" rx="8" fill="#6b5cff">
      <animate attributeName="height" values="194;232;194" dur="3s" begin=".25s" repeatCount="indefinite"/>
      <animate attributeName="y" values="126;88;126" dur="3s" begin=".25s" repeatCount="indefinite"/>
    </rect>
    <rect x="196" y="82" width="72" height="238" rx="8" fill="#2f6df6">
      <animate attributeName="height" values="238;204;238" dur="3s" begin=".5s" repeatCount="indefinite"/>
      <animate attributeName="y" values="82;116;82" dur="3s" begin=".5s" repeatCount="indefinite"/>
    </rect>
    <rect x="294" y="148" width="72" height="172" rx="8" fill="#16885f">
      <animate attributeName="height" values="172;212;172" dur="3s" begin=".75s" repeatCount="indefinite"/>
      <animate attributeName="y" values="148;108;148" dur="3s" begin=".75s" repeatCount="indefinite"/>
    </rect>
  </g>

  <g transform="translate(535 312)">
    <circle cx="106" cy="96" r="86" fill="#f6f4ee" opacity=".96"/>
    <circle cx="106" cy="96" r="104" fill="none" stroke="#8fb0ff" stroke-width="6" opacity=".72">
      <animate attributeName="r" values="104;124;104" dur="2.4s" repeatCount="indefinite"/>
      <animate attributeName="opacity" values=".72;.12;.72" dur="2.4s" repeatCount="indefinite"/>
    </circle>
    <text x="106" y="86" fill="#111827" text-anchor="middle" font-family="Inter, Segoe UI, sans-serif" font-size="24" font-weight="760">LIVE</text>
    <text x="106" y="122" fill="#2f6df6" text-anchor="middle" font-family="Inter, Segoe UI, sans-serif" font-size="42" font-weight="820">+42%</text>
  </g>

  <g transform="translate(96 588)" font-family="Inter, Segoe UI, sans-serif" font-size="24" font-weight="720">
    <rect x="0" y="-34" width="260" height="54" rx="10" fill="#22304a"/>
    <text x="24" y="2" fill="#ffffff">Build</text>
    <rect x="292" y="-34" width="260" height="54" rx="10" fill="#22304a"/>
    <text x="316" y="2" fill="#ffffff">Check</text>
    <rect x="584" y="-34" width="260" height="54" rx="10" fill="#22304a"/>
    <text x="608" y="2" fill="#ffffff">Present</text>
    <rect x="876" y="-34" width="260" height="54" rx="10" fill="#22304a"/>
    <text x="900" y="2" fill="#ffffff">Export</text>
  </g>
</svg>
